<svg xmlns="http://www.w3.org/2000/svg" xmlns:xlink="http://www.w3.org/1999/xlink" width="206" height="65" viewBox="0 0 206 65">
    <defs>
        <path id="a" d="M0 0h64.767v64.716H0z"/>
    </defs>
    <g fill="none" fill-rule="evenodd">
        <path fill="#ABB6AB" d="M74.888 58.09c3.152-.165 3.397-.287 3.397-2.453v-20.54c0-2.17-.245-2.292-3.397-2.455V31.21h21.415v7.2h-1.434c-1.024-4.05-1.844-5.482-6.224-5.482h-3.236c-1.186 0-1.473.245-1.473 1.474v10.065h5.078c2.907 0 3.317-.82 3.848-3.641h1.434v9.204h-1.434c-.53-2.865-.941-3.641-3.848-3.641h-5.078v9.207c0 2.207.287 2.33 4.094 2.495v1.432H74.888v-1.432zM109.194 55.636c0 2.167.246 2.29 3.399 2.454v1.433h-12.448V58.09c3.152-.164 3.399-.287 3.399-2.454v-20.54c0-2.169-.247-2.29-3.399-2.454V31.21h12.448v1.432c-3.153.163-3.399.285-3.399 2.454v20.54zM125.598 31.21c4.586 6.874 9.295 13.706 14.004 20.621l.164.041V40.783c0-2.862-.084-4.459-.245-5.89-.125-1.35-.616-1.924-1.76-2.047l-2.172-.204V31.21h9.786v1.432l-1.474.163c-.983.123-1.475.737-1.638 2.088-.163 1.39-.205 2.987-.205 5.89v18.74h-3.89c-5.199-7.814-10.44-15.63-15.764-23.485h-.162v13.91c0 2.863.08 4.46.244 5.893.123 1.347.615 1.92 1.76 2.046l2.17.204v1.432h-9.786v-1.432l1.476-.165c.982-.123 1.473-.738 1.637-2.085.163-1.392.205-2.988.205-5.892V35.097c0-2.17-.247-2.292-3.4-2.455V31.21h9.05zM171.392 58.172c-2.293 1.31-6.388 1.964-9.377 1.964-4.831 0-8.558-1.147-11.056-3.478-2.62-2.495-3.972-6.259-3.972-10.923 0-4.583 1.188-8.306 3.644-11.006 2.457-2.62 6.388-4.134 11.835-4.134 2.66 0 6.55.492 8.763 1.718v6.998h-1.433c-.86-3.64-2.826-6.998-7.699-6.998-7.492 0-8.803 8.513-8.803 12.849 0 4.746 1.27 13.255 9.008 13.255 4.873 0 6.756-3.394 8.148-7.813h1.433l-.49 7.568zM189.445 47.33l-3.524-11.005h-.122c-.451 1.31-3.071 9.533-3.561 11.005h7.207zM173.27 58.091c2.375-.084 2.785-.45 3.523-2.373 1.146-2.946 2.62-7.366 4.013-11.333l4.585-13.175h4.382l8.31 24.753c.613 1.882 1.107 2.044 3.317 2.128v1.432h-12.038V58.09l2.17-.165c1.025-.081 1.19-.614.86-1.635l-2.373-7.16h-8.395c-.779 2.618-1.598 4.95-2.13 7.24-.245 1.024-.205 1.474.82 1.555l2.333.165v1.432h-9.377V58.09z"/>
        <path fill="#FFF" d="M41.86 21.183c-.287-.144-.239-.355-.237-.362l.009-.05h.053c.005 0 .52-.004.83-.232.158-.122.192-.185.249-.28l.332-.429c.265-.274.365-.305.432-.271.05.026.058.082.047.086 0 .002.06.143.2.2.097.041.211.03.345-.029l.64-.252.052-.018.026.056c.003.015.116.289.004.474-.053.089-.148.142-.277.154-.213.02-.27.133-.324.242-.043.086-.093.184-.22.184-.028 0-.05.08-.068.15-.028.114-.061.254-.177.321-.076.045-.164.05-.278.02-.067-.018-.113-.018-.14 0-.045.029-.06.126-.076.229-.03.18-.067.427-.315.562l-.15.085c-.214.127-.25.12-.409-.075l-.233-.27c-.28-.296-.281-.4-.248-.457l-.067-.038zm-1.142 8.838a.196.196 0 0 1-.09-.163c.018-.246.36-.485.407-.791.03-.22.2-.316.365-.31.197.003.405.1.528.202.106.089.182.144.268.142.083.002.208-.05.402-.211a.495.495 0 0 1 .319-.13c.324.01.551.33.971.423.597.14.527.303.794.415.058.025.12.038.185.038.24 0 .542-.172.804-.434.175-.175.311-.275.466-.277.155.002.28.108.42.281.21.273.307.485.452.472.05 0 .12-.02.217-.076a.348.348 0 0 1 .17-.06c.032 0 .068.011.09.036a.126.126 0 0 1 .032.087c-.013.152-.168.372-.385.386a.239.239 0 0 1-.107-.024.432.432 0 0 0-.2-.054c-.12-.002-.28.061-.63.061-.232.017-.162.034-.216.182-.035.144-.15.331-.588.431-.22.054-.343.094-.411.12-.077.025-.058.031-.12.043-.056-.007-.063-.043-.064-.042l-.008-.009a.535.535 0 0 0-.156-.08.543.543 0 0 0-.193-.04c-.239-.009-.417.264-.874.61-.268.203-.305.3-.318.33-.01.003.011.041-.073.066-.087-.022-.055-.034-.157-.08-.125-.064-.163-.166-.188-.217-.033-.05-.024-.065-.146-.07-.07 0-.177.014-.337.051a1.83 1.83 0 0 1-.369.068c-.13.006-.18-.102-.206-.177-.037-.087-.096-.206-.306-.38-.184-.15-.282-.184-.33-.182-.06-.01-.096.074-.238.088-.073-.002-.15-.034-.25-.11-.102-.075-.155-.155-.156-.242.003-.115.084-.184.146-.241.067-.056.107-.106.102-.112 0 0 .003 0-.022-.02zm4.16 29.506c-.988-.138-4.836-.784-6.233-2.63-1.609-2.12-3.41-3.353-3.786-6.706-.377-3.349.069-6.356.411-7.211.341-.855 1.949-1.059 2.703-2.12.439-.62 1.4-.854 2.129-.941.232.077.49.128.796.142 1.92.079-.155.253 1.423 1.1.3.158 1.339 1.579.819 0-.519-1.581.448-.829.99-1.089.619-.295-.397.878 1.404 1.267.276.06-.778.278-.202 1.23.005 0 .066.105.066.105-.027-.036-.046-.072-.066-.106-.01.004.134.32.99 2.027 0 0 1.342-.548 1.705 1.002.337 1.42.03-.728 1.034-1.488 1.003-.766.648-1.438.648-1.438 1.503-1.358 1.518.53 1.437-.73-.081-1.263.56-1.022 1.302-1.263.738-.24 1.24-1.13.823-1.277-1.36-.48-.904-2.1-.904-2.1s-.038-.501 1.543-.021c1.58.482 1.182-.44 1.762-.961.578-.52 1.381-.298 1.381-.298.537.12 2.281.62 1.358-.201-.69-.613 0-1.758-1.84-1.3-1.842.458-2.242-.458-2.983-1.14-.74-.68-1.8.641-1.76-.043.04-.677-.723-.418-.122-1.515.601-1.101-.48-1.823.46-1.864.943-.04-1.28-1.02.721-.981 2.003.041-.079-.819 1.803-.039 1.751.727 2.121-.62 2.121-.62-1.222-.52-1.175-1.176-.91-1.478.266-.303.91-2.27.039-2.46-2.54-.553-.455-1.211-1.707-1.515-1.25-.302-1.627-1.098-1.627-1.098-1.365-1.288-3.788-.49-3.978-.871-.19-.377-.454-1.137.151-1.287 1.4-.35 0-1.288.947-1.212 2.363.19 2.349-.39 2.349-.39-.165-.855-.444-.165-.937-1.797-.492-1.637-.608-.529-1.508-.98-2.063-1.038-.45-.445-1.677-1.874-1.224-1.429.042-.73-.565-2.079-.611-1.347-.897-.368-.897-.368-.781.86-.206 1.306-.699 1.306-1.303 0-.73-.33-2.28.37-1.545.697-1.307.244-2.16-.082-.857-.33-.538-.937-.208-.896.33.04.816.082.694-.534-.124-.616.49-1.834.284-1.958-.206-.12-1.51.247-1.224-.45.288-.697-.41-.527-1.47-.485-1.063.04-1.063 0-1.3-.369-.24-.37.198-1.3-.29-1.711-.484-.41-1.019.206-1.019.206-1.226.04-.937-.698-.937-.698s-.817.147-.856-.322c-.04-.484-.204-.738-.403-.686-1.639.428-2.479-.481-2.479-.481s-.487.534-.998.397-.456 0-.94.484c0 0 .259 1.32-.183 1.377-1.567.21-.918-.85-1.855-1.06-1.475-.33-.702.342-1.24.342s0-.61-.792.36c-.79.969-.61 0-.61 0s.072-.27-1.062.088c-1.136.36-.718 1.15-.718 1.15s-.08 1.322-2.683 1.282c-2.604-.041-.179.64-.941 1.18-.761.54.198 1.1-.28 2.82-.481 1.72 1.32-.938 2.542 1.18 1.222 2.12.02.76-.141 1.26-.16.498-.858-.222-1.301.38-.439.6-.058-1.48-.74-1.56-.681-.08-.792-.456-.792-.456s-.108-.966-1.608-.144c-1.505.82-1.022.28-2.203.039-1.182-.24-1.602-1.7-1.961-1.3-.361.4-.082 2.04-.32 2.16-.244.12-.902.262-1.023.761-.12.5.66.098.701.579.042.482.418 1.12-.08 1.72-.5.6-.806.607.601.922.54.12-.345.43.54.658.621.162-.09-.456 1.165.218 1.353.728.136.521.337.72.2.203 1.638.461 1.68.782.042.322.421-.059.042.681-.382.739 1.88-.44 2.2-.16.321.28 1.181.2 1.181.899 0 .7-.401.102-1.22.403-.82.296-1.102-.322-1.803-.363-.7-.04 0 .282-1.14.44-1.141.16 0-.72-2.124.26-2.121.981-.939.72-1.581 1.06 0 0-1.14-.36-2.08.04-.942.4-.161 1.101-.78 1.46-.62.362.198 1.26-.94 1.34-1.14.082-.54.04-.982.7-.44.66-.159.98-.12 1.88.04.901.28-.42 1.101-.42.82 0 .998-.301 1.76.18.763.48.3.862 1.141.961.841.098.38-.662 1.144-.842.761-.178.38-.899 1.78-.86 1.401.041 1-.675 1.6-.498.601.179-.299.521.481.98.78.46.679-.5 1.401.16.721.66-.46.879-.702 1.48-.239.601-.279-.022-.978.82-.7.842-1 .68-1.802.44-.804-.24-.2.62-.161.862.041.24.6.899.16 2.199-.442 1.3-.76-.257-1.58.442-.821.697-.282.879-1.264 1.06-.98.179-.599.179-.378.418.22.24.402.261-.12.6-.522.34-.32.94-1.343 1.018-1.017.084-.12.742-.12.742s.024-.257.603-.538c.58-.282 1.319-.264 1.639.178.322.44-.058.52.662.64.722.12 1.002.5.52.738-.481.243-.618.762-.82 1.503-.2.74.339.418.422.7.079.278.12.72.36.319.24-.401-.545-.918.458-1.5 1.003-.58.921.54 1.543-.241.62-.78.061-1.519 1.463-1.6 1.397-.08.698-1.04 1.798-.68 1.102.361.46.738.741 1.18.282.439-.04.66 1.421-.04 1.462-.7.48.462 1.062.722.58.258.24-1.543 1.34-1.462 1.102.08-.297-1.781 1.142-1.42.185.047.318.053.42.038.408.241.93.578 1.495 1.01 0 .004.004.007.006.01.691.944.978 1.109 1.079.91.376.354.758.74 1.129 1.176 2.12 2.497 1.232 1.811 1.606 4.616.378 2.802-.49 5.648-.615 6.77-.216 1.94-2.503 3.702-4.312 4.515-1.657.741-2.763 1.822-5.026 2.045-.72.073-1.558.055-2.565-.086-.018-.01-.034-.02-.051-.028C8.53 53.16 2.467 43.467 2.467 32.358c0-16.511 13.393-29.896 29.917-29.896 16.52 0 29.919 13.385 29.919 29.896 0 12.054-7.142 22.439-17.425 27.169zm-11.576-30.15v-.038c0-.064.005-.188.05-.464.057-.357.05-.57.133-.728.093-.164.272-.2.611-.2.526.005.751-.358 1.106-.372.082 0 .168.025.256.08.227.143.283.327.36.44.08.11.161.187.514.193.557.005.845-.442 1.263-.456.092 0 .19.028.288.088.223.135.346.13.412.138.013.001.08.005.089.082-.018.093-.067.11-.178.289-.323.477-.548.4-.754.789-.283.474-1.064.226-1.347.443-.385.243-.765.082-1.239.593-.483.522-.198.5-.412.829-.108.145-.31.191-.524.193-.272 0-.575-.08-.78-.215-.157-.108-.203-.314-.205-.532.002-.366.134-.793.262-1.001.106-.165.099-.137.095-.15zm.406-18.234c.02.103.127.192.343.282l.34.13c.18.07.249.094.249.172a.754.754 0 0 1-.063.218l-.097.278a1.136 1.136 0 0 1-.387.576c-.176.16-.358.322-.455.848l-.08.608c-.016.141-.031.289-.055.313a1.39 1.39 0 0 1-.218-.2c-.308-.317-.413-.426-.413-.633 0-.098.023-.22.06-.393.015-.08.025-.148.025-.203 0-.27-.162-.334-.307-.39l-.23-.137a.297.297 0 0 1-.084-.208c0-.126.075-.28.191-.504l.069-.134c.11-.225.142-.431.17-.611.022-.162.044-.302.117-.432 0 0 .042-.106.07-.098.03.008.102.01.12.08a.66.66 0 0 0 .083.161l.032.026c.06.052.108.09.165.031.052-.056.267-.049.39-.042 0 0 .104-.025.104.015 0 .094-.141.121-.141.22l.002.027zm-2.139 24.35c.02-.025.04-.049.063-.073.54-.66 1.077-1.879 2.378-.782 1.304 1.101-.078 1.164 2.365 2.522.711.397 1.228.8 1.649 1.175-.777.628-2.042 1.6-2.413 1.6-.539 0-2.07 1.783-4.042-4.442zm-2.683-7.338c0-.154.033-.332.21-.34h.027a.23.23 0 0 0 .042.004c.11-.005.124-.037.155-.154.02-.114.013-.286.033-.471.013-.126.036-.216.14-.229.155.028.197.204.21.204l.008.015v.016s0 .262.037.4c.003.029.041.045.118.065.062.014.184.046.186.177 0 .149 0 .45.076.78.027.122.106.165.2.2.084.046.195.007.235.152 0 .035-.014.06-.032.085-.001.002-.003.006-.003.019-.008.096.166.316.178.463a.117.117 0 0 1-.036.087.136.136 0 0 1-.092.03.356.356 0 0 1-.075-.01.187.187 0 0 0-.045-.005c-.04 0-.027.001-.036.096v.018c0 .067-.01.221-.161.223a.449.449 0 0 1-.147-.031.273.273 0 0 0-.103-.02c-.198-.01-.39.232-.658.244h-.002c-.12 0-.244-.062-.363-.205a1.293 1.293 0 0 1-.308-.847c0-.163.029-.27.03-.274l.013-.049h.267a2.933 2.933 0 0 1-.104-.643zm-4.545-5.69c-.324.423-.772.716-1.1.722h-.008c-.122 0-.235-.053-.293-.16-.04-.087-.188-.113-.35-.132-.15-.017-.35-.045-.354-.239 0-.106.057-.23.19-.42l.01-.015.02-.008c.927-.35.998-.409 1.258-.806.167-.246.589-.333 1.066-.334.454 0 .96.086 1.347.25.355.15.562.21.691.21.147-.002.214-.066.356-.196.185-.166.504-.494.76-.506.136 0 .213.123.213.305l-.003 1.228c-.013 0-.172.71-.604.736a.361.361 0 0 1-.178-.049c-.413-.233-.682-.162-1.218-.574a1.745 1.745 0 0 0-1.025-.353c-.31 0-.593.1-.778.341zm-1.746 6.73c0-.045.013-.108.059-.176a.241.241 0 0 1 .21-.101c.223.013.496.167.518.37a.152.152 0 0 1-.06.121c-.045.032-.092.154-.09.283.005.197.082.369.282.37a.43.43 0 0 0 .092-.01c.08-.018.147-.026.205-.026.112 0 .191.03.242.083a.23.23 0 0 1 .062.162.327.327 0 0 1-.01.08v1.202l.358.214.007.01c.001.006.123.15.129.294a.142.142 0 0 1-.05.116.2.2 0 0 1-.136.044.841.841 0 0 1-.244-.049.633.633 0 0 0-.182-.034c-.124.002-.151.063-.236.17-.075.102-.205.22-.467.217-.04 0-.08-.001-.125-.006-.363-.034-.488-.14-.555-.261-.069-.114-.084-.203-.336-.314a.6.6 0 0 0-.236-.057c-.253-.012-.37.292-.736.44-.256.078-.306.413-.544.45-.126-.008-.207-.11-.334-.33-.305-.55-.525-.706-.53-1.075 0-.077.011-.161.031-.256.129-.588.752-.587.995-.658.177-.005.117-.761.221-1.095.043-.126.162-.176.275-.172.207.003.472.102.756.101.053 0 .106-.002.157-.01a2.566 2.566 0 0 0 .274-.052l-.002-.045zm8.227 10.536c-.557 1.523-.619.786-3.595-2.358l-.027-.031c-.01-.138-.003-.245.027-.302.241-.44 1.164-.759 1.381-1.823.22-1.058.12-.657.821.362.197.287.415.45.638.525.454 1.2 1.01 2.925.755 3.627zm23.833-29.627C48.952 4.407 41.08.886 32.384.886c-8.7 0-16.57 3.521-22.27 9.218C4.412 15.8.887 23.664.887 32.358c0 8.691 3.525 16.556 9.225 22.253a31.422 31.422 0 0 0 17.474 8.855c.176-.143.763-.547 1.9-.723.162-.136.747-.629 1.263-.692.215-.021.491-.088.801-.127l.065-1.944c-.06.01-.145.022-.247.022-.4.002-1.074-.178-1.588-1.142-.769-1.443-.8-2.55-1.056-2.931a.23.23 0 0 1-.043-.12c.003-.109.11-.142.19-.142.416.005 1.549.566 2.343 1.834.357.576.544 1.005.638 1.326l.262-1.512c0-.003-.008-.12-.008-.302.006-.547.057-1.685.67-2.074.001-.002 1.266-1.106 1.47-1.556.08-.158.123-.252.243-.268.13.02.147.128.175.247.024.125.035.297.035.5-.003.895-.208 2.39-.605 2.997-.56.845-1.256.575-1.536.972-.283.357-.582 1.745-.578 2.682 0 .117.003.226.013.33.04.426.056.746.056.987 0 .028-.002.044-.003.068.207.006.425.034.648.111.379.12.504.302.564.371.05.05.105.11.607.163.392.036.584.109.707.218.123.125.12.162.149.168.025.014.108.035.288.035.82.003 1.644.404 1.655.408l.266.126a31.423 31.423 0 0 0 17.724-8.887c5.7-5.697 9.226-13.562 9.226-22.253 0-8.693-3.526-16.559-9.226-22.254z"/>
        <g>
            <mask id="b" fill="#fff">
                <use xlink:href="#a"/>
            </mask>
            <path fill="#B50938" d="M42.175 21.677l.234.27c.158.197.195.203.41.076l.148-.085c.248-.135.285-.383.314-.563.017-.102.033-.2.076-.228.029-.017.074-.017.141 0 .114.03.202.025.277-.02.116-.067.15-.207.178-.32.017-.072.04-.152.069-.152.126 0 .175-.098.22-.183.053-.109.11-.223.322-.24.13-.014.225-.067.278-.156.113-.185-.002-.46-.004-.474l-.026-.057-.053.018-.64.253c-.132.06-.247.07-.344.03a.399.399 0 0 1-.2-.2c.01-.005.004-.061-.047-.086-.067-.035-.167-.003-.433.27l-.332.429c-.056.095-.09.158-.249.28-.31.228-.825.231-.83.231h-.052l-.008.05c-.002.009-.052.218.236.363l.068.038c-.034.057-.033.16.247.456zm-8.328-10.781c0-.04-.104-.015-.104-.015-.124-.007-.339-.013-.39.042-.058.06-.105.021-.165-.032l-.031-.024s-.065-.09-.084-.162c-.019-.07-.09-.072-.12-.08-.027-.008-.07.098-.07.098-.073.13-.095.27-.117.432-.027.18-.059.386-.17.612l-.069.133c-.116.224-.191.378-.191.505 0 .077.027.141.084.207l.23.136c.144.057.306.12.306.39 0 .056-.01.124-.024.204-.037.172-.06.294-.06.392 0 .209.105.318.413.633.125.13.202.194.217.2.025-.024.04-.171.055-.312l.082-.608c.095-.527.278-.687.454-.848.144-.128.28-.25.386-.576l.098-.278a.74.74 0 0 0 .062-.218c0-.078-.068-.103-.248-.171l-.34-.132c-.216-.09-.324-.178-.344-.281l-.001-.028c0-.097.14-.125.14-.22zm20.808 43.716c5.7-5.698 9.226-13.563 9.226-22.255 0-8.692-3.527-16.558-9.226-22.253C48.95 4.407 41.08.886 32.383.886c-8.699 0-16.57 3.521-22.27 9.218-5.7 5.695-9.224 13.56-9.224 22.253 0 8.692 3.523 16.557 9.224 22.255a31.43 31.43 0 0 0 17.474 8.854c.176-.143.763-.547 1.9-.723.162-.136.747-.629 1.263-.692.215-.02.492-.088.801-.127l.066-1.945c-.061.011-.145.023-.249.023-.4.003-1.074-.178-1.586-1.142-.77-1.443-.802-2.55-1.056-2.932a.229.229 0 0 1-.045-.12c.003-.107.111-.141.192-.141.416.005 1.548.566 2.342 1.833.358.577.545 1.006.637 1.327l.263-1.513c0-.001-.007-.118-.007-.3.004-.548.056-1.686.67-2.075.001-.002 1.265-1.107 1.47-1.556.078-.157.121-.253.242-.267.13.018.147.127.174.245.026.127.036.298.036.502-.003.893-.208 2.388-.604 2.997-.561.844-1.258.574-1.536.971-.285.357-.583 1.745-.58 2.681 0 .117.005.227.015.33.04.426.054.746.054.988l-.002.068c.208.006.425.034.647.111.38.12.504.302.565.371.05.05.105.11.608.163.39.036.582.109.707.217.123.127.12.163.148.17.024.013.108.035.288.035.82.003 1.643.403 1.655.407l.265.126a31.422 31.422 0 0 0 17.725-8.886zM32.383 64.716C14.497 64.714.001 50.227 0 32.357 0 14.486 14.497 0 32.383 0c17.879 0 32.38 14.48 32.384 32.345v.024c-.005 17.865-14.505 32.345-32.384 32.347zm8.255-34.563c-.062.057-.143.126-.146.241.002.087.054.167.156.241.1.077.177.109.25.11.142-.013.177-.098.239-.087.047-.002.146.032.328.182.21.174.271.294.308.38.024.075.075.183.205.177.08 0 .184-.023.369-.068.16-.038.267-.051.337-.051.122.006.113.02.147.07.025.051.063.154.187.217.102.045.07.058.156.08.085-.024.064-.062.074-.065.013-.03.05-.128.319-.33.457-.346.634-.62.873-.611.054 0 .117.011.193.041a.516.516 0 0 1 .163.088c.002 0 .01.035.065.042.062-.012.042-.018.12-.044.067-.026.191-.065.41-.12.438-.099.554-.286.59-.43.052-.148-.016-.165.216-.182.349 0 .509-.062.629-.061.06 0 .114.011.2.054.035.017.07.025.107.024.216-.014.373-.234.384-.387a.121.121 0 0 0-.031-.086.117.117 0 0 0-.09-.036.348.348 0 0 0-.17.06.45.45 0 0 1-.218.076c-.144.013-.24-.198-.451-.472-.139-.173-.266-.28-.42-.281-.155.002-.292.102-.465.277-.262.262-.564.435-.806.434a.476.476 0 0 1-.184-.037c-.267-.113-.197-.277-.794-.415-.42-.094-.646-.414-.972-.425a.493.493 0 0 0-.317.13c-.196.162-.32.214-.403.212-.086.002-.161-.053-.268-.141a.912.912 0 0 0-.528-.203.345.345 0 0 0-.366.31c-.045.307-.387.545-.407.792a.194.194 0 0 0 .092.161c.024.02.02.022.02.022.006.005-.035.055-.101.11zm-7.693.377c.001.217.047.422.206.531.204.134.507.215.779.215.214-.002.415-.048.524-.193.213-.33-.07-.308.412-.829.473-.51.854-.35 1.239-.593.282-.216 1.065.031 1.346-.442.207-.39.432-.313.755-.79.11-.18.16-.196.177-.289-.009-.077-.075-.08-.087-.082-.067-.008-.19-.003-.413-.138a.55.55 0 0 0-.289-.087c-.417.013-.706.46-1.263.454-.352-.004-.434-.081-.512-.192-.078-.112-.134-.297-.361-.44a.472.472 0 0 0-.256-.08c-.355.014-.58.377-1.105.374-.34-.001-.52.035-.612.198-.083.158-.075.37-.134.727-.043.277-.048.401-.048.465v.039c.003.013.01-.016-.097.15-.127.207-.26.635-.261 1.002zm-4.222-1.732l-.014.05c0 .003-.03.11-.03.273 0 .22.055.548.31.847.119.143.242.205.362.205h.002c.269-.012.46-.254.659-.243a.29.29 0 0 1 .103.018.419.419 0 0 0 .146.032c.151-.002.161-.156.161-.223v-.018c.008-.095-.004-.096.036-.096.01 0 .025 0 .044.005.03.007.053.01.076.01a.133.133 0 0 0 .092-.03.117.117 0 0 0 .036-.087c-.012-.147-.187-.367-.178-.463 0-.013.002-.018.004-.02a.14.14 0 0 0 .031-.084c-.04-.145-.15-.106-.235-.152-.094-.035-.172-.078-.2-.198-.076-.333-.076-.633-.076-.782-.002-.132-.124-.163-.187-.177-.076-.02-.114-.036-.117-.065-.036-.137-.037-.4-.037-.4v-.016l-.007-.015-.06.032.06-.032c-.014 0-.056-.176-.211-.204-.104.013-.126.103-.14.229-.02.185-.013.356-.034.47-.03.118-.045.15-.154.155-.014 0-.027 0-.043-.003l-.027-.001c-.175.008-.208.186-.208.34 0 .222.067.505.103.643h-.267zm-6.4.494c-.052.008-.104.01-.156.01-.285.001-.55-.098-.758-.101-.112-.004-.232.045-.274.172-.104.335-.043 1.09-.221 1.095-.242.071-.867.07-.994.658-.02.094-.03.179-.03.256.003.369.223.524.528 1.075.127.22.208.323.335.33.236-.037.288-.372.542-.45.367-.148.483-.452.737-.44.064 0 .14.015.236.058.251.111.267.2.336.312.067.123.192.228.555.262.044.005.086.005.124.005.263.004.393-.114.469-.217.084-.106.111-.167.235-.17a.61.61 0 0 1 .181.036c.104.032.181.048.244.048.054 0 .1-.012.137-.044a.142.142 0 0 0 .05-.116c-.006-.144-.128-.288-.13-.293l-.006-.01-.358-.215V30.35c.003-.014.01-.042.01-.078a.232.232 0 0 0-.063-.164c-.05-.053-.13-.082-.242-.082-.057 0-.124.008-.205.025a.43.43 0 0 1-.09.01c-.201 0-.279-.172-.284-.369-.002-.13.046-.251.09-.282a.154.154 0 0 0 .06-.121c-.021-.204-.295-.358-.517-.37a.239.239 0 0 0-.21.1.302.302 0 0 0-.059.175l.002.046a2.837 2.837 0 0 1-.273.052zm3.822-6.815c.535.413.804.342 1.217.574.06.033.12.05.178.05.432-.027.592-.736.604-.736l.002-1.229c0-.182-.076-.304-.213-.304-.255.01-.574.34-.76.505-.141.131-.208.194-.354.196-.13 0-.337-.06-.692-.21-.387-.164-.894-.25-1.348-.25-.476.001-.898.088-1.064.334-.26.398-.333.456-1.26.807l-.02.007-.01.015c-.132.19-.189.315-.19.42.006.193.206.221.356.24.16.018.309.044.349.13.058.108.171.16.293.16h.007c.328-.005.776-.297 1.102-.721.184-.241.466-.34.776-.34.364-.002.76.142 1.027.352zm3.284 13.102c-.7-1.02-.6-1.42-.821-.362-.216 1.064-1.14 1.383-1.38 1.822-.03.058-.037.165-.027.302.006.01.017.021.027.032 2.975 3.144 3.038 3.881 3.594 2.358.254-.702-.3-2.426-.755-3.627-.223-.076-.44-.238-.638-.525zm2.955-33.117c-16.524 0-29.918 13.385-29.918 29.895 0 11.11 6.065 20.803 15.065 25.958a.719.719 0 0 1 .052.028c1.006.14 1.845.159 2.565.086 2.263-.222 3.37-1.303 5.027-2.045 1.808-.813 4.095-2.576 4.312-4.515.124-1.122.992-3.968.614-6.769-.374-2.806.515-2.12-1.607-4.617a14.49 14.49 0 0 0-1.129-1.177c-.1.2-.387.035-1.077-.908a.032.032 0 0 1-.007-.01 15.4 15.4 0 0 0-1.495-1.012c-.101.016-.235.01-.42-.036-1.438-.363-.04 1.5-1.141 1.419-1.101-.081-.761 1.72-1.342 1.461-.582-.26.402-1.422-1.06-.721-1.462.699-1.14.479-1.421.04-.283-.442.36-.819-.743-1.18-1.099-.36-.4.601-1.798.68-1.4.081-.84.82-1.462 1.6-.622.78-.54-.339-1.542.241-1.004.582-.22 1.098-.46 1.5-.24.401-.28-.041-.36-.32-.082-.281-.621.043-.42-.699.2-.742.338-1.26.82-1.502.482-.24.2-.618-.52-.739-.72-.12-.34-.198-.663-.64-.32-.442-1.06-.46-1.64-.178-.579.282-.603.538-.603.538s-.897-.658.122-.74c1.023-.08.82-.679 1.343-1.02.52-.339.339-.36.12-.6-.221-.24-.602-.24.378-.418.981-.181.442-.362 1.262-1.06.82-.7 1.14.857 1.582-.442.44-1.3-.12-1.96-.162-2.199-.04-.243-.642-1.102.162-.862.802.24 1.101.402 1.802-.44.7-.842.739-.219.979-.821.24-.6 1.423-.819.7-1.479-.722-.659-.62.3-1.4-.16-.78-.459.12-.8-.481-.98-.601-.177-.2.539-1.6.499-1.401-.04-1.019.68-1.78.859-.763.18-.303.94-1.143.843-.843-.1-.379-.482-1.142-.963-.762-.48-.94-.179-1.76-.179-.82 0-1.06 1.32-1.101.42-.038-.9-.32-1.22.12-1.88.443-.659-.158-.618.98-.7 1.14-.08.323-.978.942-1.339.62-.36-.162-1.06.779-1.46.94-.401 2.081-.04 2.081-.04.643-.34-.54-.08 1.582-1.06 2.123-.98.981-.1 2.123-.26 1.14-.16.44-.48 1.14-.44.702.04.982.658 1.803.362.82-.302 1.22.296 1.22-.402 0-.7-.86-.62-1.182-.9-.32-.28-2.581.9-2.2.16.38-.74 0-.36-.042-.68-.041-.322-1.479-.58-1.68-.782-.2-.2 1.016.007-.337-.72-1.253-.675-.542-.057-1.165-.219-.883-.228 0-.537-.538-.659-1.408-.314-1.102-.32-.601-.92.496-.601.12-1.24.079-1.72-.04-.482-.821-.08-.7-.58.12-.499.778-.642 1.021-.761.24-.12-.04-1.76.32-2.16.36-.4.78 1.06 1.961 1.3 1.182.241.698.78 2.203-.04 1.5-.82 1.609.145 1.609.145s.11.376.792.455c.682.081.3 2.161.74 1.56.443-.6 1.14.12 1.301-.38.161-.498 1.362.86.14-1.259-1.221-2.118-3.022.54-2.54-1.181.477-1.72-.482-2.279.278-2.82.763-.539-1.661-1.22.941-1.179 2.604.04 2.684-1.282 2.684-1.282s-.418-.79.718-1.15c1.134-.359 1.06-.09 1.06-.09s-.179.97.612 0c.792-.968.253-.357.792-.357.537 0-.235-.673 1.24-.343.937.21.288 1.27 1.855 1.06.441-.058.183-1.377.183-1.377.483-.484.428-.62.94-.484.511.137.999-.397.999-.397s.84.91 2.477.48c.2-.052.365.204.404.688.04.468.856.321.856.321s-.288.737.937.698c0 0 .535-.617 1.02-.206.488.41.048 1.34.288 1.711.238.369.238.409 1.302.369 1.06-.042 1.756-.213 1.469.485-.285.697 1.019.33 1.224.45.206.123-.409 1.342-.284 1.958.123.616-.364.573-.694.534-.33-.042-.649.566.207.896.854.326.616.78 2.16.08 1.55-.698.978-.368 2.281-.368.492 0-.082-.445.7-1.306 0 0 .284-.978.896.369.608 1.348-.66.649.566 2.078 1.226 1.43-.387.836 1.676 1.874.9.451 1.015-.656 1.507.98.494 1.632.773.942.939 1.797 0 0 .013.58-2.35.39-.946-.075.453.863-.946 1.212-.607.15-.341.91-.152 1.286.19.382 2.613-.416 3.978.873 0 0 .378.795 1.627 1.097 1.253.304-.832.962 1.707 1.515.872.19.228 2.157-.039 2.46-.264.301-.313.958.91 1.477 0 0-.37 1.347-2.121.621-1.882-.78.2.08-1.803.039-2-.039.221.94-.72.98-.94.042.14.764-.46 1.865-.601 1.097.16.837.12 1.516-.04.683 1.021-.638 1.762.042.74.682 1.14 1.597 2.98 1.14 1.842-.458 1.152.687 1.842 1.3.923.82-.82.32-1.358.201 0 0-.803-.223-1.381.298-.58.522-.18 1.444-1.762.96-1.582-.48-1.543.022-1.543.022s-.457 1.62.903 2.1c.418.147-.084 1.037-.822 1.278-.741.24-1.383 0-1.302 1.262.081 1.259.067-.629-1.437.73 0 0 .355.672-.649 1.438-1.003.76-.695 2.908-1.032 1.488-.364-1.55-1.707-1.002-1.707-1.002-.855-1.706-1-2.023-.989-2.027-.576-.95.478-1.17.202-1.23-1.801-.389-.785-1.56-1.403-1.266-.544.26-1.51-.492-.992 1.089.52 1.58-.518.159-.818 0-1.578-.847.497-1.022-1.423-1.1a2.914 2.914 0 0 1-.797-.143c-.728.088-1.69.321-2.129.941-.754 1.062-2.361 1.266-2.702 2.12-.343.856-.788 3.863-.411 7.213.376 3.352 2.177 4.585 3.786 6.706 1.396 1.845 5.245 2.49 6.232 2.628 10.284-4.728 17.426-15.114 17.426-27.169 0-16.51-13.4-29.895-29.919-29.895zm3.227 37.473c-.539 0-2.071 1.783-4.042-4.443.019-.024.041-.048.063-.072.539-.661 1.078-1.879 2.379-.782 1.303 1.102-.08 1.164 2.364 2.523.712.396 1.227.8 1.65 1.174-.779.628-2.044 1.6-2.414 1.6z" mask="url(#b)"/>
        </g>
        <path fill="#ABB6AB" d="M200.642 34.464h.53c.583 0 1.09-.178 1.09-.681 0-.407-.253-.684-1.013-.684-.303 0-.48.025-.607.052v1.313zm0 2.377h-.784V32.62c.43-.076.885-.127 1.466-.127.71 0 1.063.127 1.342.329.253.176.431.506.431.885 0 .53-.379.858-.835 1.01v.052c.379.15.581.48.706 1.01.129.657.205.91.305 1.063h-.808c-.129-.153-.23-.532-.33-1.113-.101-.456-.38-.657-.987-.657h-.506v1.77zm.708-5.537c-1.822 0-3.211 1.493-3.211 3.312 0 1.871 1.39 3.336 3.262 3.336 1.82.025 3.162-1.465 3.162-3.312 0-1.843-1.342-3.336-3.188-3.336h-.025zm.051-.709c2.276 0 4.073 1.771 4.073 4.02 0 2.3-1.797 4.07-4.099 4.07-2.302 0-4.122-1.77-4.122-4.07 0-2.249 1.82-4.02 4.122-4.02h.026z"/>
    </g>
</svg>
