<svg xmlns="http://www.w3.org/2000/svg" width="12" height="14" viewBox="0 0 12 14">
    <path fill="#ABB6AB" fill-rule="nonzero" d="M10.714 6.125h-.643V4.156C10.071 1.865 8.245 0 6 0 3.755 0 1.929 1.865 1.929 4.156v1.969h-.643C.576 6.125 0 6.713 0 7.438v5.25C0 13.412.576 14 1.286 14h9.428c.71 0 1.286-.588 1.286-1.313v-5.25c0-.724-.576-1.312-1.286-1.312zm-3.598 4.567c0 .604-.484 1.094-1.081 1.094-.598 0-1.082-.49-1.082-1.094V9.379c0-.604.484-1.093 1.082-1.093.597 0 1.081.49 1.081 1.093v1.313zm.837-4.55H4.116V4.18c0-1.084.861-1.965 1.919-1.965s1.918.881 1.918 1.965v1.964z"/>
</svg>
