<svg xmlns="http://www.w3.org/2000/svg" width="25" height="16" viewBox="0 0 25 16">
    <g fill="none" fill-rule="evenodd">
        <path fill="#F5F5F5" d="M24.521 15.987H.431a.425.425 0 0 1-.431-.42V.434C0 .2.193.014.43.014h24.091c.238 0 .43.187.43.42v15.133c0 .232-.192.42-.43.42z"/>
        <g fill="#FF4B55">
            <path d="M24.951 1.242H0V.434C0 .2.193.014.43.014h24.091c.238 0 .43.187.43.42v.808zM0 4.928h24.951v1.229H0zM0 2.471h24.951V3.7H0zM24.951 8.614H.431A.425.425 0 0 1 0 8.194v-.808h24.951v1.228zM0 12.301h24.951v1.229H0zM24.521 15.987H.431a.425.425 0 0 1-.431-.42v-.809h24.951v.809c0 .232-.192.42-.43.42zM0 9.843h24.951v1.229H0z"/>
        </g>
        <path fill="#41479B" d="M11.185.013H.43a.425.425 0 0 0-.43.42v7.761c0 .232.193.42.43.42h10.755c.238 0 .43-.188.43-.42V.434a.425.425 0 0 0-.43-.42z"/>
        <g fill="#F5F5F5">
            <path d="M1.208.978l.095.279.301.002c.04 0 .055.05.024.072l-.242.175.09.28c.013.036-.03.066-.062.044l-.244-.17-.245.17c-.032.022-.074-.008-.063-.044l.091-.28-.242-.175C.68 1.308.696 1.26.735 1.259l.3-.002.096-.279c.012-.036.065-.036.077 0zM1.208 2.438l.095.279.301.002c.04 0 .055.049.024.072l-.242.174.09.28c.013.037-.03.067-.062.045l-.244-.171-.245.171c-.032.022-.074-.008-.063-.044l.091-.28-.242-.175c-.031-.023-.015-.072.024-.072l.3-.002.096-.28c.012-.035.065-.035.077 0zM1.208 3.897l.095.28.301.002c.04 0 .055.049.024.071l-.242.175.09.28c.013.037-.03.067-.062.045l-.244-.171-.245.17c-.032.023-.074-.007-.063-.044l.091-.28-.242-.175C.68 4.228.696 4.18.735 4.18l.3-.002.096-.28c.012-.036.065-.036.077 0zM1.208 5.357l.095.28.301.001c.04 0 .055.05.024.072l-.242.175.09.28c.013.036-.03.067-.062.044l-.244-.17-.245.17c-.032.023-.074-.007-.063-.044l.091-.28-.242-.175c-.031-.023-.015-.071.024-.071l.3-.003.096-.279c.012-.036.065-.036.077 0zM1.208 6.817l.095.279.301.002c.04 0 .055.05.024.072l-.242.174.09.28c.013.037-.03.067-.062.045L1.17 7.5l-.245.17c-.032.022-.074-.008-.063-.044l.091-.28-.242-.175c-.031-.023-.015-.071.024-.072l.3-.002.096-.279c.012-.036.065-.036.077 0zM2.368 1.694l.095.279.3.002c.04 0 .056.049.025.071l-.243.175.091.28c.012.037-.03.067-.062.045l-.245-.171-.245.17c-.032.023-.074-.007-.062-.043l.09-.28-.241-.176c-.032-.022-.016-.07.023-.071l.301-.002.096-.28c.012-.035.064-.035.077 0zM2.368 3.153l.095.28.3.002c.04 0 .056.049.025.071l-.243.175.091.28c.012.037-.03.067-.062.045l-.245-.171-.245.17c-.032.023-.074-.007-.062-.044l.09-.28-.241-.175c-.032-.022-.016-.071.023-.071l.301-.003.096-.279c.012-.036.064-.036.077 0zM2.368 4.613l.095.28.3.001c.04 0 .056.05.025.072l-.243.175.091.28c.012.036-.03.067-.062.044l-.245-.17-.245.17c-.032.022-.074-.008-.062-.044l.09-.28-.241-.175c-.032-.023-.016-.071.023-.072l.301-.002.096-.279c.012-.036.064-.036.077 0zM2.368 6.073l.095.279.3.002c.04 0 .056.049.025.072l-.243.174.091.28c.012.037-.03.067-.062.045l-.245-.171-.245.171c-.032.022-.074-.008-.062-.044l.09-.28-.241-.175c-.032-.023-.016-.072.023-.072l.301-.002.096-.28c.012-.035.064-.035.077 0zM3.527.978l.095.279.301.002c.04 0 .055.05.024.072l-.242.175.09.28c.013.036-.03.066-.062.044l-.244-.17-.245.17c-.032.022-.074-.008-.063-.044l.091-.28-.242-.175c-.031-.023-.015-.071.024-.072l.3-.002.096-.279c.012-.036.065-.036.077 0zM3.527 2.438l.095.279.301.002c.04 0 .055.049.024.072l-.242.174.09.28c.013.037-.03.067-.062.045l-.244-.171-.245.17c-.032.023-.074-.007-.063-.043l.091-.28-.242-.175c-.031-.023-.015-.072.024-.072l.3-.002.096-.28c.012-.035.065-.035.077 0zM3.527 3.897l.095.28.301.002c.04 0 .055.049.024.071l-.242.175.09.28c.013.037-.03.067-.062.045l-.244-.171-.245.17c-.032.023-.074-.007-.063-.044l.091-.28-.242-.175c-.031-.022-.015-.071.024-.071l.3-.003.096-.279c.012-.036.065-.036.077 0zM3.527 5.357l.095.28.301.001c.04 0 .055.05.024.072l-.242.175.09.28c.013.036-.03.067-.062.044l-.244-.17-.245.17c-.032.023-.074-.008-.063-.044l.091-.28-.242-.175c-.031-.023-.015-.071.024-.072l.3-.002.096-.279c.012-.036.065-.036.077 0zM3.527 6.817l.095.279.301.002c.04 0 .055.05.024.072l-.242.174.09.28c.013.037-.03.067-.062.045l-.244-.171-.245.171c-.032.022-.074-.008-.063-.044l.091-.28-.242-.175c-.031-.023-.015-.071.024-.072l.3-.002.096-.28c.012-.035.065-.035.077 0zM4.687 1.694l.095.279.3.002c.04 0 .056.049.025.071l-.243.175.091.28c.012.037-.03.067-.062.045l-.245-.171-.245.17c-.031.023-.074-.007-.062-.043l.09-.28-.241-.176c-.032-.022-.016-.07.023-.071l.301-.002.096-.28c.012-.035.064-.035.077 0zM4.687 3.153l.095.28.3.002c.04 0 .056.049.025.071l-.243.175.091.28c.012.037-.03.067-.062.045l-.245-.171-.245.17c-.031.023-.074-.007-.062-.044l.09-.28-.241-.175c-.032-.022-.016-.071.023-.071l.301-.003.096-.279c.012-.036.064-.036.077 0zM4.687 4.613l.095.28.3.001c.04 0 .056.05.025.072l-.243.175.091.28c.012.036-.03.067-.062.044l-.245-.17-.245.17c-.031.022-.074-.008-.062-.044l.09-.28-.241-.175c-.032-.023-.016-.071.023-.072l.301-.002.096-.279c.012-.036.064-.036.077 0zM4.687 6.073l.095.279.3.002c.04 0 .056.049.025.072l-.243.174.091.28c.012.037-.03.067-.062.045l-.245-.171-.245.171c-.031.022-.074-.008-.062-.044l.09-.28-.241-.175c-.032-.023-.016-.072.023-.072l.301-.002.096-.28c.012-.035.064-.035.077 0zM5.846.978l.095.279.301.002c.04 0 .055.05.024.072l-.242.175.09.28c.013.036-.03.066-.061.044l-.245-.17-.245.17c-.032.022-.074-.008-.063-.044l.091-.28-.242-.175c-.031-.023-.015-.071.024-.072l.3-.002.096-.279c.012-.036.065-.036.077 0zM5.846 2.438l.095.279.301.002c.04 0 .055.049.024.072l-.242.174.09.28c.013.037-.03.067-.061.045l-.245-.171-.245.17c-.032.023-.074-.007-.063-.043l.091-.28-.242-.175c-.031-.023-.015-.072.024-.072l.3-.002.096-.28c.012-.035.065-.035.077 0zM5.846 3.897l.095.28.301.002c.04 0 .055.049.024.071l-.242.175.09.28c.013.037-.03.067-.061.045l-.245-.171-.245.17c-.032.023-.074-.007-.063-.044l.091-.28-.242-.175c-.031-.022-.015-.071.024-.071l.3-.003.096-.279c.012-.036.065-.036.077 0zM5.846 5.357l.095.28.301.001c.04 0 .055.05.024.072l-.242.175.09.28c.013.036-.03.067-.061.044l-.245-.17-.245.17c-.032.023-.074-.008-.063-.044l.091-.28-.242-.175c-.031-.023-.015-.071.024-.072l.3-.002.096-.279c.012-.036.065-.036.077 0zM5.846 6.817l.095.279.301.002c.04 0 .055.05.024.072l-.242.174.09.28c.013.037-.03.067-.061.045l-.245-.171-.245.171c-.032.022-.074-.008-.063-.044l.091-.28-.242-.175c-.031-.023-.015-.071.024-.072l.3-.002.096-.28c.012-.035.065-.035.077 0zM7.006 1.694l.095.279.3.002c.04 0 .056.049.025.071l-.243.175.091.28c.012.037-.03.067-.062.045l-.245-.171-.245.17c-.031.023-.074-.007-.062-.043l.09-.28-.241-.176c-.032-.022-.016-.07.023-.071l.301-.002.096-.28c.012-.035.064-.035.077 0zM7.006 3.153l.095.28.3.002c.04 0 .056.049.025.071l-.243.175.091.28c.012.037-.03.067-.062.045l-.245-.171-.245.17c-.031.023-.074-.007-.062-.044l.09-.28-.241-.175c-.032-.022-.016-.071.023-.071l.301-.003.096-.279c.012-.036.064-.036.077 0zM7.006 4.613l.095.28.3.001c.04 0 .056.05.025.072l-.243.175.091.28c.012.036-.03.067-.062.044l-.245-.17-.245.17c-.031.022-.074-.008-.062-.044l.09-.28-.241-.175c-.032-.023-.016-.071.023-.072l.301-.002.096-.279c.012-.036.064-.036.077 0zM7.006 6.073l.095.279.3.002c.04 0 .056.049.025.072l-.243.174.091.28c.012.037-.03.067-.062.045l-.245-.171-.245.171c-.031.022-.074-.008-.062-.044l.09-.28-.241-.175c-.032-.023-.016-.072.023-.072l.301-.002.096-.28c.012-.035.064-.035.077 0zM8.165.978l.095.279.301.002c.04 0 .056.05.024.072l-.242.175.09.28c.013.036-.03.066-.061.044l-.245-.17-.245.17c-.032.022-.074-.008-.062-.044l.09-.28-.242-.175c-.031-.023-.015-.071.024-.072l.301-.002.095-.279c.012-.036.065-.036.077 0zM8.165 2.438l.095.279.301.002c.04 0 .056.049.024.072l-.242.174.09.28c.013.037-.03.067-.061.045l-.245-.171-.245.17c-.032.023-.074-.007-.062-.043l.09-.28-.242-.175c-.031-.023-.015-.072.024-.072l.301-.002.095-.28c.012-.035.065-.035.077 0zM8.165 3.897l.095.28.301.002c.04 0 .056.049.024.071l-.242.175.09.28c.013.037-.03.067-.061.045l-.245-.171-.245.17c-.032.023-.074-.007-.062-.044l.09-.28-.242-.175c-.031-.022-.015-.071.024-.071l.301-.003.095-.279c.012-.036.065-.036.077 0zM8.165 5.357l.095.28.301.001c.04 0 .056.05.024.072l-.242.175.09.28c.013.036-.03.067-.061.044l-.245-.17-.245.17c-.032.023-.074-.008-.062-.044l.09-.28-.242-.175c-.031-.023-.015-.071.024-.072l.301-.002.095-.279c.012-.036.065-.036.077 0zM8.165 6.817l.095.279.301.002c.04 0 .056.05.024.072l-.242.174.09.28c.013.037-.03.067-.061.045l-.245-.171-.245.171c-.032.022-.074-.008-.062-.044l.09-.28-.242-.175c-.031-.023-.015-.071.024-.072l.301-.002.095-.28c.012-.035.065-.035.077 0zM9.325 1.694l.095.279.3.002c.04 0 .056.049.025.071l-.242.175.09.28c.012.037-.03.067-.062.045l-.245-.171-.245.17c-.031.023-.074-.007-.062-.043l.09-.28-.241-.176c-.032-.022-.015-.07.024-.071l.3-.002.096-.28c.012-.035.064-.035.077 0zM9.325 3.153l.095.28.3.002c.04 0 .056.049.025.071l-.242.175.09.28c.012.037-.03.067-.062.045l-.245-.171-.245.17c-.031.023-.074-.007-.062-.044l.09-.28-.241-.175c-.032-.022-.015-.071.024-.071l.3-.003.096-.279c.012-.036.064-.036.077 0zM9.325 4.613l.095.28.3.001c.04 0 .056.05.025.072l-.242.175.09.28c.012.036-.03.067-.062.044l-.245-.17-.245.17c-.031.022-.074-.008-.062-.044l.09-.28-.241-.175c-.032-.023-.015-.071.024-.072l.3-.002.096-.279c.012-.036.064-.036.077 0zM9.325 6.073l.095.279.3.002c.04 0 .056.049.025.072l-.242.174.09.28c.012.037-.03.067-.062.045l-.245-.171-.245.171c-.031.022-.074-.008-.062-.044l.09-.28-.241-.175c-.032-.023-.015-.072.024-.072l.3-.002.096-.28c.012-.035.064-.035.077 0zM10.484.978l.095.279.301.002c.04 0 .056.05.024.072l-.242.175.09.28c.013.036-.03.066-.061.044l-.245-.17-.245.17c-.032.022-.074-.008-.062-.044l.09-.28-.242-.175c-.031-.023-.015-.071.024-.072l.301-.002.095-.279c.013-.036.065-.036.077 0zM10.484 2.438l.095.279.301.002c.04 0 .056.049.024.072l-.242.174.09.28c.013.037-.03.067-.061.045l-.245-.171-.245.17c-.032.023-.074-.007-.062-.043l.09-.28-.242-.175c-.031-.023-.015-.072.024-.072l.301-.002.095-.28c.013-.035.065-.035.077 0zM10.484 3.897l.095.28.301.002c.04 0 .056.049.024.071l-.242.175.09.28c.013.037-.03.067-.061.045l-.245-.171-.245.17c-.032.023-.074-.007-.062-.044l.09-.28-.242-.175c-.031-.022-.015-.071.024-.071l.301-.003.095-.279c.013-.036.065-.036.077 0zM10.484 5.357l.095.28.301.001c.04 0 .056.05.024.072l-.242.175.09.28c.013.036-.03.067-.061.044l-.245-.17-.245.17c-.032.023-.074-.008-.062-.044l.09-.28-.242-.175c-.031-.023-.015-.071.024-.072l.301-.002.095-.279c.013-.036.065-.036.077 0zM10.484 6.817l.095.279.301.002c.04 0 .056.05.024.072l-.242.174.09.28c.013.037-.03.067-.061.045l-.245-.171-.245.171c-.032.022-.074-.008-.062-.044l.09-.28-.242-.175c-.031-.023-.015-.071.024-.072l.301-.002.095-.28c.013-.035.065-.035.077 0z"/>
        </g>
    </g>
</svg>
